<svg xmlns="http://www.w3.org/2000/svg" xmlns:xlink="http://www.w3.org/1999/xlink" width="400" zoomAndPan="magnify" viewBox="0 0 300 299.999988" height="400" preserveAspectRatio="xMidYMid meet" version="1.0"><defs><clipPath id="2b983baa82"><path d="M 1.71875 1.71875 L 297.96875 1.71875 L 297.96875 297.96875 L 1.71875 297.96875 Z M 1.71875 1.71875 " clip-rule="nonzero"/></clipPath><clipPath id="2f07dd75e9"><path d="M 35.839844 53 L 263.839844 53 L 263.839844 242 L 35.839844 242 Z M 35.839844 53 " clip-rule="nonzero"/></clipPath></defs><g clip-path="url(#2b983baa82)"><path fill="#ffffff" d="M 297.960938 149.839844 C 297.960938 152.265625 297.902344 154.6875 297.785156 157.109375 C 297.664062 159.527344 297.488281 161.945312 297.25 164.359375 C 297.011719 166.769531 296.714844 169.175781 296.359375 171.574219 C 296.003906 173.972656 295.589844 176.359375 295.117188 178.738281 C 294.644531 181.113281 294.113281 183.480469 293.523438 185.832031 C 292.933594 188.183594 292.289062 190.519531 291.585938 192.835938 C 290.878906 195.15625 290.121094 197.457031 289.304688 199.742188 C 288.488281 202.023438 287.613281 204.285156 286.6875 206.523438 C 285.757812 208.761719 284.777344 210.980469 283.742188 213.171875 C 282.703125 215.363281 281.613281 217.527344 280.472656 219.664062 C 279.328125 221.800781 278.136719 223.910156 276.890625 225.988281 C 275.644531 228.070312 274.347656 230.117188 273 232.132812 C 271.652344 234.148438 270.257812 236.128906 268.8125 238.078125 C 267.367188 240.023438 265.878906 241.933594 264.339844 243.808594 C 262.800781 245.683594 261.21875 247.515625 259.589844 249.3125 C 257.964844 251.109375 256.292969 252.863281 254.578125 254.578125 C 252.863281 256.292969 251.109375 257.964844 249.3125 259.589844 C 247.515625 261.21875 245.683594 262.800781 243.808594 264.339844 C 241.933594 265.878906 240.023438 267.367188 238.078125 268.8125 C 236.128906 270.257812 234.148438 271.652344 232.132812 273 C 230.117188 274.347656 228.070312 275.644531 225.988281 276.890625 C 223.910156 278.136719 221.800781 279.328125 219.664062 280.472656 C 217.527344 281.613281 215.363281 282.703125 213.171875 283.742188 C 210.980469 284.777344 208.761719 285.757812 206.523438 286.6875 C 204.285156 287.613281 202.023438 288.488281 199.742188 289.304688 C 197.457031 290.121094 195.15625 290.878906 192.835938 291.585938 C 190.519531 292.289062 188.183594 292.933594 185.832031 293.523438 C 183.480469 294.113281 181.113281 294.644531 178.738281 295.117188 C 176.359375 295.589844 173.972656 296.003906 171.574219 296.359375 C 169.175781 296.714844 166.769531 297.011719 164.359375 297.25 C 161.945312 297.488281 159.527344 297.664062 157.109375 297.785156 C 154.6875 297.902344 152.265625 297.960938 149.839844 297.960938 C 147.414062 297.960938 144.992188 297.902344 142.570312 297.785156 C 140.152344 297.664062 137.734375 297.488281 135.320312 297.25 C 132.910156 297.011719 130.503906 296.714844 128.105469 296.359375 C 125.707031 296.003906 123.320312 295.589844 120.941406 295.117188 C 118.566406 294.644531 116.199219 294.113281 113.847656 293.523438 C 111.496094 292.933594 109.160156 292.289062 106.84375 291.585938 C 104.523438 290.878906 102.222656 290.121094 99.9375 289.304688 C 97.65625 288.488281 95.394531 287.613281 93.15625 286.6875 C 90.917969 285.757812 88.699219 284.777344 86.507812 283.742188 C 84.316406 282.703125 82.152344 281.613281 80.015625 280.472656 C 77.878906 279.328125 75.769531 278.136719 73.691406 276.890625 C 71.609375 275.644531 69.5625 274.347656 67.546875 273 C 65.53125 271.652344 63.550781 270.257812 61.601562 268.8125 C 59.65625 267.367188 57.746094 265.878906 55.871094 264.339844 C 53.996094 262.800781 52.164062 261.21875 50.367188 259.589844 C 48.570312 257.964844 46.816406 256.292969 45.101562 254.578125 C 43.386719 252.863281 41.714844 251.109375 40.089844 249.3125 C 38.460938 247.515625 36.878906 245.683594 35.339844 243.808594 C 33.800781 241.933594 32.3125 240.023438 30.867188 238.078125 C 29.421875 236.128906 28.027344 234.148438 26.679688 232.132812 C 25.332031 230.117188 24.035156 228.070312 22.789062 225.988281 C 21.542969 223.910156 20.351562 221.800781 19.207031 219.664062 C 18.066406 217.527344 16.976562 215.363281 15.9375 213.171875 C 14.902344 210.980469 13.917969 208.761719 12.992188 206.523438 C 12.066406 204.285156 11.191406 202.023438 10.375 199.742188 C 9.558594 197.457031 8.800781 195.15625 8.09375 192.835938 C 7.390625 190.519531 6.746094 188.183594 6.15625 185.832031 C 5.566406 183.480469 5.035156 181.113281 4.5625 178.738281 C 4.089844 176.359375 3.675781 173.972656 3.320312 171.574219 C 2.964844 169.175781 2.667969 166.769531 2.429688 164.359375 C 2.191406 161.945312 2.015625 159.527344 1.894531 157.109375 C 1.777344 154.6875 1.71875 152.265625 1.71875 149.839844 C 1.71875 147.414062 1.777344 144.992188 1.894531 142.570312 C 2.015625 140.152344 2.191406 137.734375 2.429688 135.320312 C 2.667969 132.910156 2.964844 130.503906 3.320312 128.105469 C 3.675781 125.707031 4.089844 123.320312 4.5625 120.941406 C 5.035156 118.566406 5.566406 116.199219 6.15625 113.847656 C 6.746094 111.496094 7.390625 109.160156 8.09375 106.84375 C 8.800781 104.523438 9.558594 102.222656 10.375 99.9375 C 11.191406 97.65625 12.066406 95.394531 12.992188 93.15625 C 13.917969 90.917969 14.902344 88.699219 15.9375 86.507812 C 16.976562 84.316406 18.066406 82.152344 19.207031 80.015625 C 20.351562 77.878906 21.542969 75.769531 22.789062 73.691406 C 24.035156 71.609375 25.332031 69.5625 26.679688 67.546875 C 28.027344 65.53125 29.421875 63.550781 30.867188 61.601562 C 32.3125 59.65625 33.800781 57.746094 35.339844 55.871094 C 36.878906 53.996094 38.460938 52.164062 40.089844 50.367188 C 41.714844 48.570312 43.386719 46.816406 45.101562 45.101562 C 46.816406 43.386719 48.570312 41.714844 50.367188 40.089844 C 52.164062 38.460938 53.996094 36.878906 55.871094 35.339844 C 57.746094 33.800781 59.65625 32.3125 61.601562 30.867188 C 63.550781 29.421875 65.53125 28.027344 67.546875 26.679688 C 69.5625 25.332031 71.609375 24.035156 73.691406 22.789062 C 75.769531 21.542969 77.878906 20.351562 80.015625 19.207031 C 82.152344 18.066406 84.316406 16.976562 86.507812 15.9375 C 88.699219 14.902344 90.917969 13.917969 93.15625 12.992188 C 95.394531 12.066406 97.65625 11.191406 99.9375 10.375 C 102.222656 9.558594 104.523438 8.800781 106.84375 8.09375 C 109.160156 7.390625 111.496094 6.746094 113.847656 6.15625 C 116.199219 5.566406 118.566406 5.035156 120.941406 4.5625 C 123.320312 4.089844 125.707031 3.675781 128.105469 3.320312 C 130.503906 2.964844 132.910156 2.667969 135.320312 2.429688 C 137.734375 2.191406 140.152344 2.015625 142.570312 1.894531 C 144.992188 1.777344 147.414062 1.71875 149.839844 1.71875 C 152.265625 1.71875 154.6875 1.777344 157.109375 1.894531 C 159.527344 2.015625 161.945312 2.191406 164.359375 2.429688 C 166.769531 2.667969 169.175781 2.964844 171.574219 3.320312 C 173.972656 3.675781 176.359375 4.089844 178.738281 4.5625 C 181.113281 5.035156 183.480469 5.566406 185.832031 6.15625 C 188.183594 6.746094 190.519531 7.390625 192.835938 8.09375 C 195.15625 8.800781 197.457031 9.558594 199.742188 10.375 C 202.023438 11.191406 204.285156 12.066406 206.523438 12.992188 C 208.761719 13.917969 210.980469 14.902344 213.171875 15.9375 C 215.363281 16.976562 217.527344 18.066406 219.664062 19.207031 C 221.800781 20.351562 223.910156 21.542969 225.988281 22.789062 C 228.070312 24.035156 230.117188 25.332031 232.132812 26.679688 C 234.148438 28.027344 236.128906 29.421875 238.078125 30.867188 C 240.023438 32.3125 241.933594 33.800781 243.808594 35.339844 C 245.683594 36.878906 247.515625 38.460938 249.3125 40.089844 C 251.109375 41.714844 252.863281 43.386719 254.578125 45.101562 C 256.292969 46.816406 257.964844 48.570312 259.589844 50.367188 C 261.21875 52.164062 262.800781 53.996094 264.339844 55.871094 C 265.878906 57.746094 267.367188 59.65625 268.8125 61.601562 C 270.257812 63.550781 271.652344 65.53125 273 67.546875 C 274.347656 69.5625 275.644531 71.609375 276.890625 73.691406 C 278.136719 75.769531 279.328125 77.878906 280.472656 80.015625 C 281.613281 82.152344 282.703125 84.316406 283.742188 86.507812 C 284.777344 88.699219 285.757812 90.917969 286.6875 93.15625 C 287.613281 95.394531 288.488281 97.65625 289.304688 99.9375 C 290.121094 102.222656 290.878906 104.523438 291.585938 106.84375 C 292.289062 109.160156 292.933594 111.496094 293.523438 113.847656 C 294.113281 116.199219 294.644531 118.566406 295.117188 120.941406 C 295.589844 123.320312 296.003906 125.707031 296.359375 128.105469 C 296.714844 130.503906 297.011719 132.910156 297.25 135.320312 C 297.488281 137.734375 297.664062 140.152344 297.785156 142.570312 C 297.902344 144.992188 297.960938 147.414062 297.960938 149.839844 Z M 297.960938 149.839844 " fill-opacity="1" fill-rule="nonzero"/></g><g clip-path="url(#2f07dd75e9)"><path fill="#100f0d" d="M 35.828125 147.035156 C 35.828125 147.035156 58.546875 124.464844 88.601562 188.894531 C 89.824219 191.515625 93.246094 192.042969 94.863281 189.648438 C 111.113281 165.59375 176.933594 75.34375 263.824219 53.039062 C 263.824219 53.039062 169.898438 105.183594 121.632812 204.164062 C 121.632812 204.164062 103.246094 247.171875 68.921875 241.027344 C 68.921875 241.027344 66.472656 191.878906 35.828125 147.035156 " fill-opacity="1" fill-rule="nonzero"/></g></svg>